<svg width="24" height="24" viewBox="0 0 24 24" fill="none" xmlns="http://www.w3.org/2000/svg">
<path d="M18 11V5C18 4.4477 17.5523 4 17 4H7C6.44771 4 6 4.44771 6 5V19.168L10.3779 16.3545C10.872 16.0368 11.4362 15.8779 12 15.8779C12.5523 15.8779 13 16.3256 13 16.8779C12.9998 17.4301 12.5522 17.8779 12 17.8779C11.8117 17.8779 11.6237 17.9302 11.459 18.0361L5.54102 21.8408C5.23331 22.0386 4.84158 22.0532 4.52051 21.8779C4.19952 21.7026 4 21.3658 4 21V5C4 3.34315 5.34315 2 7 2H17C18.6569 2 20 3.34315 20 5V11C20 11.5523 19.5523 12 19 12C18.4477 12 18 11.5523 18 11Z" fill="#808080"/>
<path d="M18 21V19H16C15.4477 19 15 18.5523 15 18C15 17.4477 15.4477 17 16 17H18V15C18 14.4477 18.4477 14 19 14C19.5523 14 20 14.4477 20 15V17H22C22.5523 17 23 17.4477 23 18C23 18.5523 22.5523 19 22 19H20V21C20 21.5523 19.5523 22 19 22C18.4477 22 18 21.5523 18 21Z" fill="#808080"/>
</svg>
