<svg width="24" height="24" viewBox="0 0 24 24" fill="none" xmlns="http://www.w3.org/2000/svg">
    <g clip-path="url(#clip0_635_112)">
        <path fill-rule="evenodd" clip-rule="evenodd"
            d="M9.41667 4.8957C9.37407 5.0232 9.40797 5.0745 9.47277 5.1717C9.51597 5.2362 9.57267 5.3214 9.62937 5.4633H9.70047C10.41 5.2503 11.1195 5.1084 11.8998 5.1084C12.6801 5.1084 13.3899 5.2503 14.0994 5.4633H14.1705C14.2263 5.3232 14.2824 5.2272 14.3253 5.154C14.3913 5.0415 14.4261 4.9815 14.3832 4.8957C14.3547 4.7538 14.3037 4.6119 14.2527 4.4697C14.1762 4.257 14.0997 4.0443 14.0997 3.8313C14.0997 3.654 14.1882 3.4056 14.2767 3.1572C14.3655 2.9091 14.4543 2.6607 14.4543 2.4834C14.4543 2.3076 14.0736 2.0232 13.6827 1.731C13.4421 1.551 13.1973 1.3683 13.0353 1.206C12.8763 1.047 12.717 0.8385 12.5652 0.6393C12.3111 0.3063 12.078 0 11.8998 0H11.829C11.619 0 11.4093 0.273 11.1702 0.5841C11.0052 0.7989 10.8258 1.0323 10.6227 1.2063C10.4607 1.3683 10.2159 1.5513 9.97527 1.7313C9.58437 2.0232 9.20367 2.3076 9.20367 2.4834C9.20367 2.6109 9.27567 2.8101 9.35427 3.0294C9.45087 3.2982 9.55827 3.597 9.55827 3.8313C9.65997 4.0848 9.58017 4.3383 9.50067 4.5915C9.46887 4.6929 9.43677 4.7943 9.41667 4.8957ZM3.74067 9.4365C4.30827 9.4365 4.80477 9.5076 5.15967 9.7203C5.58537 8.727 6.15267 7.8756 6.93327 7.1661C5.37237 5.8179 2.67627 5.676 2.39247 5.889C2.10867 6.102 2.10897 9.4365 3.74067 9.4365ZM18.711 9.7203C18.285 8.727 17.6466 7.8756 16.9371 7.1661C18.498 5.8179 21.1941 5.676 21.4782 5.889C21.762 6.102 21.762 9.5076 20.13 9.4365C19.5624 9.4365 19.1367 9.5076 18.711 9.7203ZM18.4272 13.197C18.4272 12.1326 18.2142 11.1393 17.8596 10.2171C17.5047 9.3657 16.9371 8.5851 16.2987 7.9464C15.2343 6.8823 13.8864 6.3144 12.4674 6.1728H11.4741C10.0551 6.3147 8.70687 6.8823 7.64247 7.9464C7.00407 8.5851 6.43647 9.3654 6.08157 10.2171C5.65587 11.1393 5.51397 12.1326 5.51397 13.197C5.51397 14.19 5.72697 15.1125 6.08157 16.035C6.43647 16.8153 6.86217 17.5251 7.42977 18.1635C8.35197 19.1568 9.55827 19.8663 10.8354 20.1501C11.19 20.2212 11.616 20.292 11.9706 20.292H12.4674C14.0283 20.1501 15.5184 19.4406 16.5825 18.2346C17.1501 17.5959 17.5755 16.8864 17.9304 16.1061C18.2142 15.1125 18.4272 14.1192 18.4272 13.197ZM18.7818 16.4607C18.4272 17.3832 17.8596 18.2346 17.1498 18.9441C17.2209 19.1571 17.292 19.5117 17.3628 19.8663C17.5047 21.4272 20.9103 21.2145 21.0522 20.9307C21.2652 20.6469 20.8395 17.5251 18.7818 16.4607ZM11.9709 21.2145C12.3258 21.2145 12.6804 21.2145 13.035 21.1434C12.9642 22.4205 13.3191 23.5557 14.5962 23.6979H14.7381C14.1705 23.9106 13.6029 24.0525 13.035 23.9817C11.6871 23.7687 10.6938 22.4916 10.6938 21.0726C11.1195 21.1434 11.5452 21.2145 11.9709 21.2145ZM6.43677 19.866C6.29487 21.498 2.95977 21.2142 2.81817 20.8593C2.67627 20.5755 3.03117 17.5248 5.01777 16.4604C5.44347 17.3829 5.93997 18.2343 6.64977 18.9438C6.57867 19.1568 6.50757 19.4403 6.43677 19.866Z"
            fill="currentColor" />
    </g>
    <defs>
        <clipPath id="clip0_635_112">
            <rect width="24" height="24" fill="white" />
        </clipPath>
    </defs>
</svg>