<svg width="24" height="24" viewBox="0 0 24 24" fill="none" xmlns="http://www.w3.org/2000/svg">
<path d="M22 11C22 11.5523 21.5523 12 21 12C20.4477 12 20 11.5523 20 11V8H12.7217C12.3399 7.99992 11.9707 7.86293 11.6807 7.61426L8.62988 5H4V19H12C12.5523 19 13 19.4477 13 20C13 20.5523 12.5523 21 12 21H3.59961C2.77133 20.9998 2.08966 20.3703 2.00781 19.5635L2 19.4004V4.59961C2.00021 3.71626 2.71626 3.00021 3.59961 3H8.77832C9.11239 3.00006 9.43697 3.10435 9.70703 3.29688L9.81934 3.38477L12.8701 6H20.4004C21.2838 6.00021 21.9998 6.7163 22 7.59961V11Z" fill="#808080"/>
<path d="M18 21V19H16C15.4477 19 15 18.5523 15 18C15 17.4477 15.4477 17 16 17H18V15C18 14.4477 18.4477 14 19 14C19.5523 14 20 14.4477 20 15V17H22C22.5523 17 23 17.4477 23 18C23 18.5523 22.5523 19 22 19H20V21C20 21.5523 19.5523 22 19 22C18.4477 22 18 21.5523 18 21Z" fill="#808080"/>
</svg>
