<svg width="24" height="24" viewBox="0 0 24 24" fill="none" xmlns="http://www.w3.org/2000/svg">
    <path
        d="M12 1.25C17.937 1.25 22.75 6.06293 22.75 12C22.75 17.937 17.937 22.75 12 22.75C6.06293 22.75 1.25 17.937 1.25 12C1.25 6.06294 6.06294 1.25 12 1.25ZM12 2.75C11.0968 2.75 10.2246 2.88171 9.39941 3.12305L10.1709 4.66504C10.291 4.90569 10.2732 5.1922 10.124 5.41602L8.12402 8.41602C8.01375 8.58133 7.8423 8.69628 7.64746 8.73535L5.32617 9.19922L2.96875 11.0859C2.91252 11.1309 2.85044 11.1631 2.78711 11.1895C2.76976 11.3892 2.75933 11.5907 2.75488 11.7939L2.75586 11.7949L8.25586 13.7949C8.62588 13.9295 8.82887 14.3275 8.7207 14.7061L7.78418 17.9814L8.66699 20.6279C9.70138 21.0278 10.8245 21.25 12 21.25C13.5066 21.25 14.9276 20.887 16.1846 20.248L15.8438 18.5449L13.7217 17.6963C13.4369 17.5824 13.25 17.3067 13.25 17V13.5L13.2598 13.3809C13.3035 13.1084 13.4948 12.8774 13.7627 12.7881L16.7627 11.7881L16.8408 11.7666C16.9201 11.7494 17.0021 11.7459 17.083 11.7549L21.2441 12.2168C21.2458 12.1447 21.25 12.0725 21.25 12C21.25 11.7271 21.2351 11.4573 21.2119 11.1904C21.1964 11.1839 21.1803 11.1785 21.165 11.1709L19.3232 10.25H17.6436L15.2783 11.1963C15.0473 11.2886 14.7851 11.2606 14.5791 11.1211C14.3732 10.9816 14.25 10.7487 14.25 10.5V7.5L14.2627 7.36328C14.3202 7.05202 14.5704 6.80416 14.8936 6.75781L17.9336 6.32324L18.2881 5.2627C18.2918 5.25169 18.2967 5.24119 18.3008 5.23047C16.649 3.69237 14.435 2.75 12 2.75Z"
        fill="currentColor" />
</svg>