<svg width="24" height="24" viewBox="0 0 24 24" fill="none" xmlns="http://www.w3.org/2000/svg">
    <g clip-path="url(#clip0_639_221)">
        <path
            d="M12.0002 2.31891C15.1533 2.31891 15.5267 2.33096 16.7721 2.38777C17.9234 2.44032 18.5486 2.63265 18.9648 2.79437C19.4777 2.98367 19.9417 3.28552 20.3226 3.67772C20.7148 4.05863 21.0166 4.5226 21.2059 5.03551C21.3677 5.45161 21.56 6.07688 21.6125 7.22822C21.6693 8.47346 21.6814 8.84691 21.6814 12.0001C21.6814 15.1533 21.6693 15.5266 21.6125 16.772C21.56 17.9233 21.3676 18.5485 21.2059 18.9647C21.0095 19.474 20.7086 19.9365 20.3226 20.3225C19.9366 20.7085 19.4741 21.0094 18.9648 21.2058C18.5487 21.3676 17.9234 21.5599 16.7721 21.6124C15.5271 21.6692 15.1536 21.6813 12.0002 21.6813C8.84678 21.6813 8.47347 21.6692 7.22833 21.6124C6.07698 21.5599 5.45177 21.3675 5.03561 21.2058C4.5227 21.0165 4.05873 20.7147 3.67783 20.3225C3.28563 19.9416 2.98378 19.4776 2.79447 18.9647C2.63275 18.5486 2.44038 17.9233 2.38788 16.772C2.33106 15.5268 2.31902 15.1533 2.31902 12.0001C2.31902 8.84691 2.33106 8.47355 2.38788 7.22822C2.44042 6.07688 2.63275 5.45166 2.79447 5.03551C2.9838 4.52257 3.28568 4.05859 3.67792 3.67768C4.05883 3.28548 4.52279 2.98363 5.0357 2.79432C5.45181 2.6326 6.07708 2.44022 7.22842 2.38772C8.47366 2.33091 8.84711 2.31887 12.0003 2.31887M12.0003 0.191162C8.7932 0.191162 8.39092 0.204756 7.13158 0.262225C5.87463 0.3196 5.01625 0.519193 4.26512 0.811131C3.47718 1.10764 2.76341 1.57246 2.17356 2.17318C1.57271 2.76298 1.10776 3.47677 0.811141 4.26474C0.519437 5.01591 0.319844 5.87429 0.262703 7.13124C0.205 8.39058 0.191406 8.79286 0.191406 12C0.191406 15.2071 0.205 15.6093 0.262703 16.8687C0.320078 18.1256 0.519672 18.984 0.811609 19.7351C1.10812 20.5231 1.57294 21.2368 2.17366 21.8267C2.7635 22.4274 3.47728 22.8922 4.26522 23.1887C5.01639 23.4807 5.87477 23.6803 7.13167 23.7376C8.3912 23.7951 8.79334 23.8087 12.0004 23.8087C15.2074 23.8087 15.6098 23.7951 16.8691 23.7376C18.1261 23.6803 18.9844 23.4807 19.7356 23.1887C20.52 22.8853 21.2324 22.4214 21.8271 21.8267C22.4219 21.232 22.8858 20.5196 23.1892 19.7351C23.4811 18.984 23.6807 18.1256 23.7381 16.8687C23.7955 15.6091 23.8091 15.207 23.8091 12C23.8091 8.79291 23.7955 8.39058 23.7381 7.13124C23.6807 5.87429 23.4811 5.01591 23.1892 4.26479C22.8927 3.47684 22.4278 2.76307 21.8271 2.17322C21.2373 1.57239 20.5234 1.10747 19.7354 0.810896C18.9842 0.519193 18.1259 0.3196 16.8689 0.262459C15.6096 0.204756 15.2073 0.191162 12.0002 0.191162H12.0003Z"
            fill="currentColor" />
        <path
            d="M11.9995 5.93604C10.8002 5.93604 9.62778 6.29168 8.63056 6.958C7.63335 7.62432 6.85611 8.57138 6.39714 9.67943C5.93817 10.7875 5.81809 12.0067 6.05207 13.183C6.28605 14.3593 6.86359 15.4398 7.71165 16.2879C8.55971 17.136 9.64021 17.7135 10.8165 17.9475C11.9928 18.1815 13.2121 18.0614 14.3201 17.6024C15.4282 17.1434 16.3752 16.3662 17.0416 15.369C17.7079 14.3718 18.0635 13.1994 18.0635 12C18.0635 10.3918 17.4246 8.84935 16.2874 7.71213C15.1502 6.57492 13.6078 5.93604 11.9995 5.93604ZM11.9995 15.9363C11.221 15.9362 10.46 15.7054 9.81269 15.2729C9.16539 14.8403 8.66088 14.2256 8.36296 13.5063C8.06504 12.7871 7.9871 11.9956 8.13899 11.2321C8.29087 10.4685 8.66577 9.76715 9.21626 9.21666C9.76675 8.66618 10.4681 8.29129 11.2317 8.13942C11.9952 7.98754 12.7867 8.06549 13.5059 8.36342C14.2252 8.66134 14.8399 9.16586 15.2724 9.81317C15.705 10.4605 15.9358 11.2215 15.9358 12C15.9358 13.044 15.5211 14.0452 14.7829 14.7834C14.0447 15.5215 13.0435 15.9363 11.9995 15.9363Z"
            fill="currentColor" />
        <path
            d="M18.3038 7.11348C19.0864 7.11348 19.7208 6.47906 19.7208 5.69645C19.7208 4.91385 19.0864 4.27942 18.3038 4.27942C17.5211 4.27942 16.8867 4.91385 16.8867 5.69645C16.8867 6.47906 17.5211 7.11348 18.3038 7.11348Z"
            fill="currentColor" />
    </g>
    <defs>
        <clipPath id="clip0_639_221">
            <rect width="24" height="24" fill="white" />
        </clipPath>
    </defs>
</svg>