<svg width="24" height="24" viewBox="0 0 24 24" fill="none" xmlns="http://www.w3.org/2000/svg">
<path d="M11 2C15.9706 2 20 6.02944 20 11C20 13.1245 19.2603 15.0761 18.0293 16.6152L21.707 20.293C22.0975 20.6835 22.0975 21.3165 21.707 21.707C21.3165 22.0976 20.6835 22.0975 20.293 21.707L16.6152 18.0293C15.0761 19.2603 13.1245 20 11 20C6.02944 20 2 15.9706 2 11C2 6.02944 6.02944 2 11 2ZM11 4C7.134 4 4 7.134 4 11C4 14.866 7.134 18 11 18C12.9365 18 14.6877 17.215 15.9561 15.9434C17.22 14.6761 18 12.9299 18 11C18 7.134 14.866 4 11 4Z" fill="#808080"/>
</svg>
